<svg width="200" height="200" viewBox="0 0 200 200" xmlns="http://www.w3.org/2000/svg">
  <!-- Background Circle for the Mane -->
  <circle cx="100" cy="100" r="85" fill="url(#mane-gradient)" />

  <!-- Define Gradients for Mane and Face -->
  <defs>
    <radialGradient id="mane-gradient" cx="50%" cy="50%" r="50%">
      <stop offset="0%" style="stop-color:#D2691E; stop-opacity:1" />
      <stop offset="100%" style="stop-color:#8B4513; stop-opacity:1" />
    </radialGradient>
    <radialGradient id="face-gradient" cx="50%" cy="50%" r="50%">
      <stop offset="0%" style="stop-color:#FFD700; stop-opacity:1" />
      <stop offset="100%" style="stop-color:#DAA520; stop-opacity:1" />
    </radialGradient>
    <radialGradient id="nose-gradient" cx="50%" cy="50%" r="50%">
      <stop offset="0%" style="stop-color:#8B4513; stop-opacity:1" />
      <stop offset="100%" style="stop-color:#5A3825; stop-opacity:1" />
    </radialGradient>
  </defs>

  <!-- Face Circle -->
  <circle cx="100" cy="100" r="60" fill="url(#face-gradient)" />

  <!-- Eyes -->
  <ellipse cx="80" cy="90" rx="8" ry="12" fill="black" />
  <ellipse cx="120" cy="90" rx="8" ry="12" fill="black" />
  <circle cx="80" cy="90" r="3" fill="white" />
  <circle cx="120" cy="90" r="3" fill="white" />

  <!-- Nose -->
  <ellipse cx="100" cy="120" rx="10" ry="6" fill="url(#nose-gradient)" />

  <!-- Mouth and Snout -->
  <path d="M 90 125 Q 100 135 110 125" stroke="black" stroke-width="2" fill="none" />
  <path d="M 85 125 Q 100 150 115 125" fill="#DAA520" />
  <line x1="95" y1="130" x2="90" y2="135" stroke="black" stroke-width="2" />
  <line x1="105" y1="130" x2="110" y2="135" stroke="black" stroke-width="2" />

  <!-- Mane Details -->
  <path d="M 40 60 Q 60 30 80 50" stroke="#8B4513" stroke-width="5" />
  <path d="M 120 50 Q 140 30 160 60" stroke="#8B4513" stroke-width="5" />
  <path d="M 60 150 Q 40 160 70 180" stroke="#8B4513" stroke-width="5" />
  <path d="M 140 150 Q 160 160 130 180" stroke="#8B4513" stroke-width="5" />
</svg>
